<mxfile host="app.diagrams.net" agent="Mozilla/5.0 (Windows NT 10.0; Win64; x64) AppleWebKit/537.36 (KHTML, like Gecko) Chrome/137.0.0.0 Safari/537.36" version="28.0.6">
  <diagram name="Page-1" id="1XOeaGYE_jQfQiHo8Q4f">
    <mxGraphModel dx="524" dy="278" grid="1" gridSize="10" guides="1" tooltips="1" connect="1" arrows="1" fold="1" page="1" pageScale="1" pageWidth="480" pageHeight="270" math="0" shadow="0">
      <root>
        <mxCell id="0" />
        <mxCell id="1" parent="0" />
        <mxCell id="MZ2fn7TXdCOlkScp6uKp-1" value="" style="rounded=0;whiteSpace=wrap;html=1;strokeColor=#333333;fillColor=#333333;movable=0;resizable=0;rotatable=0;deletable=0;editable=0;locked=1;connectable=0;" vertex="1" parent="1">
          <mxGeometry width="480" height="270" as="geometry" />
        </mxCell>
        <mxCell id="MZ2fn7TXdCOlkScp6uKp-2" value="&lt;font style=&quot;font-size: 10px;&quot;&gt;&lt;b&gt;&amp;nbsp; &amp;nbsp; Lambda Expressions - Java default Functional Interfaces&lt;span style=&quot;white-space: pre;&quot;&gt;&#x9;&lt;/span&gt;&amp;nbsp;&amp;nbsp;&lt;/b&gt;&lt;/font&gt;" style="rounded=0;whiteSpace=wrap;html=1;fillColor=#dae8fc;strokeColor=#6c8ebf;" vertex="1" parent="1">
          <mxGeometry x="90" y="20" width="300" height="30" as="geometry" />
        </mxCell>
        <mxCell id="MZ2fn7TXdCOlkScp6uKp-4" value="&lt;b&gt;&lt;font style=&quot;font-size: 7px;&quot;&gt;&lt;br&gt;&lt;/font&gt;&lt;/b&gt;" style="rounded=1;whiteSpace=wrap;html=1;fillColor=#ffcccc;strokeColor=#36393d;" vertex="1" parent="1">
          <mxGeometry x="30" y="100" width="140" height="150" as="geometry" />
        </mxCell>
        <mxCell id="MZ2fn7TXdCOlkScp6uKp-5" value="" style="rounded=1;whiteSpace=wrap;html=1;fillColor=#ffcccc;strokeColor=#36393d;" vertex="1" parent="1">
          <mxGeometry x="190" y="100" width="120" height="150" as="geometry" />
        </mxCell>
        <mxCell id="MZ2fn7TXdCOlkScp6uKp-6" value="" style="rounded=1;whiteSpace=wrap;html=1;fillColor=#ffcccc;strokeColor=#36393d;" vertex="1" parent="1">
          <mxGeometry x="330" y="100" width="120" height="150" as="geometry" />
        </mxCell>
        <mxCell id="MZ2fn7TXdCOlkScp6uKp-7" value="&lt;font style=&quot;font-size: 8px;&quot;&gt;&lt;b style=&quot;&quot;&gt;Consumer Interfaces&lt;/b&gt;&lt;/font&gt;" style="rounded=1;whiteSpace=wrap;html=1;" vertex="1" parent="1">
          <mxGeometry x="50" y="115" width="100" height="25" as="geometry" />
        </mxCell>
        <mxCell id="MZ2fn7TXdCOlkScp6uKp-8" value="&lt;font style=&quot;font-size: 8px;&quot;&gt;&lt;b style=&quot;&quot;&gt;Function Interfaces&lt;/b&gt;&lt;/font&gt;" style="rounded=1;whiteSpace=wrap;html=1;" vertex="1" parent="1">
          <mxGeometry x="200" y="115" width="100" height="25" as="geometry" />
        </mxCell>
        <mxCell id="MZ2fn7TXdCOlkScp6uKp-9" value="&lt;font style=&quot;font-size: 8px;&quot;&gt;&lt;b style=&quot;&quot;&gt;Predicate Interfaces&lt;/b&gt;&lt;/font&gt;" style="rounded=1;whiteSpace=wrap;html=1;" vertex="1" parent="1">
          <mxGeometry x="340" y="115" width="100" height="25" as="geometry" />
        </mxCell>
        <mxCell id="MZ2fn7TXdCOlkScp6uKp-11" value="&lt;font style=&quot;font-size: 8px;&quot;&gt;&amp;nbsp; 1) Consumer&amp;lt;T&amp;gt; - Accepts one input&amp;nbsp; &amp;nbsp; &amp;nbsp; &amp;nbsp;parameter, returns nothing.&amp;nbsp; &amp;nbsp; &amp;nbsp; &amp;nbsp; &amp;nbsp; &amp;nbsp;&amp;nbsp;&lt;/font&gt;" style="text;html=1;align=center;verticalAlign=middle;whiteSpace=wrap;rounded=0;" vertex="1" parent="1">
          <mxGeometry x="25" y="150" width="140" height="30" as="geometry" />
        </mxCell>
        <mxCell id="MZ2fn7TXdCOlkScp6uKp-12" value="&lt;font style=&quot;font-size: 8px;&quot;&gt;2) BiConsumer&amp;lt;T, U&amp;gt; - Accepts two&amp;nbsp; &amp;nbsp; &amp;nbsp; &amp;nbsp; &amp;nbsp;input&amp;nbsp; parameters, returns nothing.&amp;nbsp; &amp;nbsp; &amp;nbsp; &amp;nbsp; &amp;nbsp; &amp;nbsp; &amp;nbsp;&lt;/font&gt;" style="text;html=1;align=center;verticalAlign=middle;whiteSpace=wrap;rounded=0;" vertex="1" parent="1">
          <mxGeometry x="30" y="200" width="140" height="30" as="geometry" />
        </mxCell>
      </root>
    </mxGraphModel>
  </diagram>
</mxfile>
